<?xml version="1.0" encoding="utf-8"?>
<!-- Generator: Adobe Illustrator 22.0.1, SVG Export Plug-In . SVG Version: 6.00 Build 0)  -->
<svg version="1.1" id="Layer_1" xmlns="http://www.w3.org/2000/svg" xmlns:xlink="http://www.w3.org/1999/xlink" x="0px" y="0px"
	 viewBox="0 0 1059 582" style="enable-background:new 0 0 1059 582;" xml:space="preserve">
<style type="text/css">
	.st0{opacity:0.5;}
	.st1{fill:#C6805E;}
	.st2{opacity:0.4;}
	.st3{fill:#A44C3E;}
	.st4{fill:#D2EAEE;}
	.st5{fill:#FFFFFF;}
	.st6{opacity:0.5;fill:#776862;enable-background:new    ;}
	.st7{fill:#718596;}
	.st8{fill:#294D62;}
	.st9{fill:#DEDEDE;}
	.st10{fill:#D0D0D0;}
	.st11{opacity:0.4;fill:#F6FAFA;enable-background:new    ;}
	.st12{fill:none;}
	.st13{fill:#6B7E8D;}
	.st14{fill:#7F91A0;}
	.st15{opacity:0.35;}
	.st16{fill:#ED7858;}
	.st17{fill:#D36248;}
	.st18{fill:#56D6C2;}
	.st19{fill:#7AEDD7;}
	.st20{fill:#51CAB7;}
	.st21{fill:#BA503E;}
	.st22{fill:#E2E2E2;}
	.st23{fill:#C8AC9F;}
	.st24{fill:#8F6F62;}
	.st25{fill:#E3D6D0;}
	.st26{fill:#B7B7B7;}
	.st27{fill:#9E9E9E;}
	.st28{fill:#EAE6E5;}
	.st29{fill:#FFAD75;}
	.st30{fill:#C5875B;}
	.st31{fill:#D8EDF0;}
	.st32{fill:#CCDFE2;}
	.st33{fill:#E2F2FF;}
	.st34{fill:#686F8E;}
	.st35{fill:#5D6582;}
</style>
<title>Asset 20</title>
<g id="Layer_2_1_">
	<g id="Layer_1-2">
		<g class="st0">
			<path class="st1" d="M870.4,339.9"/>
		</g>
		<g class="st2">
			<g class="st0">
				<path class="st3" d="M319.3,43.1c-1.4-0.4-2.9,0.4-3.3,1.9c-0.4,1.4,0.4,2.9,1.9,3.3l0,0"/>
				<path class="st3" d="M882.5,115.6"/>
				<path class="st3" d="M850.1,110.3"/>
			</g>
			<g class="st0">
				<path class="st3" d="M323.1,227.2c35.2-2.6,70.2-9.1,105.5-8.6c36,0.6,72.3,8.2,107.9,13.2v-5.2c-72.1,11-145.1,16.2-216.2-3.6
					c-1.4-0.4-2.9,0.4-3.3,1.9s0.4,2.9,1.9,3.3l0,0l0,0c72,20.3,146,14.9,219.1,3.6c1.4-0.5,2.2-2,1.8-3.4c-0.3-0.8-0.9-1.5-1.8-1.8
					c-34-4.8-68.4-11.8-102.7-13.2c-37.6-1.6-74.8,5.6-112.2,8.4C319.5,222.1,319.5,227.5,323.1,227.2z"/>
			</g>
			<g class="st0">
				<path class="st3" d="M230.8,428.7c-3.3-1.1-4.7,4-1.4,5.2h0"/>
				<path class="st3" d="M883.5,484.6"/>
			</g>
		</g>
		<path class="st4" d="M936.5,424l27.4-35.9c3-3.9,8.7-4.7,12.6-1.7l0,0c3.9,3,4.7,8.7,1.7,12.6l-27.4,35.9l0,0L936.5,424L936.5,424
			z"/>
		<path class="st5" d="M966.9,394.1c3-3.9,8.7-4.7,12.6-1.7c0.5,0.4,0.9,0.8,1.3,1.2c-1.1-4.9-5.8-7.9-10.7-6.9
			c-2.1,0.5-3.9,1.6-5.2,3.3L937.5,426l3.2,2.4L966.9,394.1z"/>
		<path class="st6" d="M310,110h367c17.1,0,31,13.9,31,31v212c0,17.1-13.9,31-31,31H310c-17.1,0-31-13.9-31-31V141
			C279,123.9,292.9,110,310,110z"/>
		<path class="st6" d="M152.2,331h57.6c9.5,0,17.2,7.7,17.2,17.2v144.6c0,9.5-7.7,17.2-17.2,17.2h-57.6c-9.5,0-17.2-7.7-17.2-17.2
			V348.2C135,338.7,142.7,331,152.2,331z"/>
		<path class="st6" d="M799,203h83c17.1,0,31,13.9,31,31v128c0,17.1-13.9,31-31,31h-83c-17.1,0-31-13.9-31-31V234
			C768,216.9,781.9,203,799,203z"/>
		<path class="st7" d="M773,212.1h27c6.6,0,12,5.4,12,12v106c0,6.6-5.4,12-12,12h-27c-6.6,0-12-5.4-12-12v-106
			C761,217.5,766.4,212.1,773,212.1z"/>
		<path class="st8" d="M799.5,344.1h-27c-8,0-14.5-6.5-14.5-14.5v-106c0-8,6.5-14.5,14.5-14.5h27c8,0,14.5,6.5,14.5,14.5v106
			C814,337.6,807.5,344.1,799.5,344.1z M772.5,214.1c-5.2,0-9.5,4.3-9.5,9.5v106c0,5.2,4.3,9.5,9.5,9.5h27c5.2,0,9.5-4.3,9.5-9.5
			v-106c0-5.2-4.3-9.5-9.5-9.5H772.5z"/>
		<path class="st9" d="M311,97h367c17.1,0,31,13.9,31,31v212c0,17.1-13.9,31-31,31H311c-17.1,0-31-13.9-31-31V128
			C280,110.9,293.9,97,311,97z"/>
		<path class="st10" d="M708,158.4V339c0,17.1-13.9,31-31,31H310c-1.9,0-3.8-0.2-5.6-0.5C374.4,366.1,662.2,341.3,708,158.4z"/>
		<path class="st11" d="M292,353V141c0-17.1,13.9-31,31-31l0,0h367c4,0,8,0.8,11.7,2.3c-5.8-7.8-15-12.3-24.7-12.3H310
			c-17.1,0-31,13.9-31,31v212c0,12.6,7.6,23.9,19.3,28.7C294.2,366.3,292,359.7,292,353z"/>
		<line class="st12" x1="281" y1="156.3" x2="301.3" y2="156.3"/>
		<path class="st8" d="M281,158.5h20.3c2.9,0,2.9-4.5,0-4.5H281C278.1,154,278.1,158.5,281,158.5z"/>
		<line class="st12" x1="308.3" y1="156.3" x2="316" y2="156.3"/>
		<path class="st8" d="M308.3,158.5h7.7c2.9,0,2.9-4.5,0-4.5h-7.7C305.4,154,305.4,158.5,308.3,158.5z"/>
		<line class="st12" x1="281" y1="166" x2="339" y2="166"/>
		<path class="st8" d="M281,168.3h58c2.9,0,2.9-4.5,0-4.5h-58C278.1,163.8,278.1,168.3,281,168.3z"/>
		<line class="st12" x1="680" y1="325.5" x2="709" y2="325.5"/>
		<path class="st8" d="M680,327.8h29c2.9,0,2.9-4.5,0-4.5h-29C677.1,323.3,677.1,327.8,680,327.8z"/>
		<path class="st8" d="M677.5,373.5h-367c-18.8,0-34-15.2-34-34v-212c0-18.8,15.2-34,34-34h367c18.8,0,34,15.2,34,34v212
			C711.5,358.3,696.3,373.5,677.5,373.5z M310.5,99.5c-15.5,0-28,12.5-28,28v212c0,15.5,12.5,28,28,28h367c15.5,0,28-12.5,28-28
			v-212c0-15.5-12.5-28-28-28H310.5z"/>
		<path class="st7" d="M787.8,173.9h108.4c9.3,0,16.8,7.5,16.8,16.8v172.4c0,9.3-7.5,16.8-16.8,16.8H787.8
			c-9.3,0-16.8-7.5-16.8-16.8V190.7C771,181.4,778.5,173.9,787.8,173.9z"/>
		<path class="st13" d="M912,190.7v172.4c0,9.3-7.5,16.8-16.8,16.8h-56.1c17.2-19.6,28.5-44.7,38.1-69.2
			c17.1-43.3,31.3-90.6,23.5-135.8C907.5,177.2,912,183.5,912,190.7z"/>
		<path class="st14" d="M781,372.1V199.7c0-9.3,7.5-16.8,16.8-16.8h108.4c2,0,4,0.4,5.9,1.1c-2.9-5.6-8.6-9.1-14.9-9.1H788.8
			c-9.3,0-16.8,7.5-16.8,16.8v172.4c0,7,4.3,13.2,10.9,15.7C781.6,377.4,781,374.8,781,372.1z"/>
		<path class="st8" d="M896.2,382.9H787.8c-10.9,0-19.8-8.9-19.8-19.8V190.7c0-10.9,8.9-19.8,19.8-19.8h108.4
			c10.9,0,19.8,8.9,19.8,19.8v172.4C916,374,907.1,382.9,896.2,382.9z M787.8,176.9c-7.6,0-13.8,6.2-13.8,13.8v172.4
			c0,7.6,6.2,13.8,13.8,13.8h108.4c7.6,0,13.8-6.2,13.8-13.8V190.7c0-7.6-6.2-13.8-13.8-13.8L787.8,176.9z"/>
		<rect x="813.5" y="174.5" class="st8" width="3" height="204.2"/>
		<rect x="866.5" y="174.5" class="st8" width="3" height="204.2"/>
		<g class="st15">
			<rect x="816.5" y="174.5" class="st8" width="3" height="204.2"/>
			<rect x="869.5" y="174.5" class="st8" width="3" height="204.2"/>
		</g>
		<rect x="93.6" y="247" class="st16" width="7.9" height="15"/>
		<rect x="93.6" y="250" class="st17" width="7.9" height="5"/>
		<path class="st8" d="M102.5,263h-9.9v-17h9.9V263z M94.6,261h5.9v-13h-5.9V261z"/>
		<path class="st18" d="M91.2,65h104.7c5,0,9.1,4.1,9.1,9.1v163.8c0,5-4.1,9.1-9.1,9.1H91.2c-5,0-9.1-4.1-9.1-9.1V74.1
			C82.1,69.1,86.2,65,91.2,65z"/>
		<path class="st19" d="M88.3,244.9V81.1c0.1-5.1,4.4-9.2,9.5-9.1h100.1c1.1,0,2.1,0.2,3.1,0.5c-0.9-4.4-4.8-7.6-9.4-7.5H91.5
			c-5.1-0.1-9.4,4-9.5,9.1v163.8c0.1,4,2.7,7.4,6.4,8.6C88.3,246,88.3,245.4,88.3,244.9z"/>
		<path class="st20" d="M203.9,104.2v133.7c0,5-4.4,9.1-9.8,9.1h-82.6c12.9-5.7,24.5-13.8,34.3-23.9c14.4-14.7,24.7-32.3,33.6-50.3
			C190.2,150.9,199,127.8,203.9,104.2z"/>
		<path class="st8" d="M194.8,250H90.1c-6.7,0-12.1-5.4-12.1-12.1V74.1C78,67.4,83.4,62,90.1,62h104.7c6.7,0,12.1,5.4,12.1,12.1
			v163.8C206.9,244.6,201.5,250,194.8,250z M90.1,68c-3.4,0-6.1,2.7-6.1,6.1v163.8c0,3.4,2.7,6.1,6.1,6.1h104.7
			c3.4,0,6.1-2.7,6.1-6.1V74.1c0-3.4-2.7-6.1-6.1-6.1H90.1z"/>
		<rect x="157.7" y="65" class="st16" width="15" height="181.5"/>
		<path class="st8" d="M174.7,248.5h-19V63h19V248.5z M159.7,244.5h11V67h-11V244.5z"/>
		<rect x="164.7" y="67" class="st21" width="3" height="177"/>
		<rect x="161.2" y="65" class="st8" width="1" height="181.5"/>
		<rect x="164.2" y="65" class="st8" width="1" height="181.5"/>
		<rect x="167.2" y="65" class="st8" width="1" height="181.5"/>
		<circle class="st5" cx="490" cy="234" r="30"/>
		<path class="st22" d="M759.5,113.8h6.5l0,0v9l0,0h-6.5c-2.5,0-4.5-2-4.5-4.5l0,0C755,115.8,757,113.8,759.5,113.8z"/>
		<path class="st5" d="M757,118.3c0-2.5,2-4.5,4.5-4.5h-2c-2.5,0-4.5,2-4.5,4.5s2,4.5,4.5,4.5h2C759,122.8,757,120.8,757,118.3z"/>
		<path class="st8" d="M767,124.3h-8c-3.3,0-6-2.7-6-6s2.7-6,6-6h8V124.3z M759,115.3c-1.7,0-3,1.3-3,3s1.3,3,3,3h5v-6H759z"/>
		<rect x="762" y="112.8" class="st23" width="120" height="11"/>
		<rect x="762" y="119.8" class="st24" width="120" height="4"/>
		<rect x="762" y="112.8" class="st25" width="120" height="4"/>
		<path class="st8" d="M883.5,125.3h-123v-14h123V125.3z M763.5,122.3h117v-8h-117V122.3z"/>
		<path class="st23" d="M889,110.8h51.5c4.1,0,7.5,3.4,7.5,7.5l0,0l0,0c0,4.1-3.4,7.5-7.5,7.5l0,0H889l0,0V110.8L889,110.8z"/>
		<path class="st24" d="M889,120.3h59l0,0l0,0c0,3-2.4,5.4-5.5,5.4l0,0H889l0,0V120.3L889,120.3z"/>
		<path class="st25" d="M889,110.8h53.5c3,0,5.5,2.4,5.5,5.4v0l0,0l0,0h-59l0,0V110.8L889,110.8z"/>
		<path class="st8" d="M940.5,127.3h-53v-18h53c5,0,9,4,9,9S945.5,127.3,940.5,127.3z M890.5,124.3h50c3.3,0,6-2.7,6-6s-2.7-6-6-6
			l0,0h-50V124.3z"/>
		<rect x="879.2" y="108.5" class="st26" width="9.5" height="19.6"/>
		<rect x="879.2" y="122.8" class="st27" width="9.5" height="5.2"/>
		<rect x="879.2" y="108.5" class="st5" width="9.5" height="7.1"/>
		<path class="st8" d="M890.2,129.6h-12.5V107h12.5L890.2,129.6z M880.6,126.6h6.5V110h-6.5V126.6z"/>
		<path class="st5" d="M742,399L742,399c18.8,0,34,15.2,34,34v36c0,18.8-15.2,34-34,34l0,0c-18.8,0-34-15.2-34-34v-36
			C708,414.2,723.2,399,742,399z"/>
		<path class="st28" d="M746,502.3c-1,0.2-2,0.4-3,0.5c-0.3,0-0.7,0.1-1,0.1c-17.5-1.6-31-16.2-31-33.9v-36
			c0-17.6,13.5-32.3,31-33.9c0.3,0,0.7,0,1,0.1c1,0.1,2,0.3,3,0.5c-15.7,3.3-27,17.2-27,33.3v36C719,485.1,730.3,499,746,502.3z"/>
		<path class="st28" d="M738,399.7c1-0.2,2-0.4,3-0.5c0.3,0,0.7-0.1,1-0.1c17.5,1.6,31,16.2,31,33.9v36c0,17.6-13.5,32.3-31,33.9
			c-0.3,0-0.7,0-1-0.1c-1-0.1-2-0.3-3-0.5c15.7-3.3,27-17.2,27-33.3v-36C765,416.9,753.7,403,738,399.7z"/>
		<path class="st8" d="M742,506c-20.4,0-37-16.6-37-37l0,0v-36c0-20.4,16.6-37,37-37s37,16.6,37,37v36C779,489.4,762.4,506,742,506
			L742,506z M742,402c-17.1,0-31,13.9-31,31v36c0,17.1,13.9,31,31,31s31-13.9,31-31v-36C773,415.9,759.1,402,742,402z"/>
		<path class="st8" d="M951.3,438.1l-19.1-14.6l28.7-37.5c3.7-5.5,11.1-7,16.6-3.3c5.5,3.7,7,11.1,3.3,16.6
			c-0.3,0.4-0.6,0.8-0.9,1.2L951.3,438.1z M940.7,422.4l9.5,7.3l25-32.7c2-2.7,1.4-6.4-1.2-8.4c-2.6-1.9-6.3-1.4-8.3,1.1
			L940.7,422.4z"/>
		<path class="st6" d="M970,479c0-21.4-15.3-39.6-36.4-43.3l-0.3-0.4c-1.6-0.2-3.2-0.3-4.7-0.3c-0.4,0-0.9,0-1.3,0s-0.9,0-1.3,0
			c-24.3,0-44,19.7-44,44c0,24.3,19.7,44,44,44c0.4,0,0.9,0,1.3,0s0.9,0,1.3,0c2.9,0,5.8-0.3,8.6-0.8c0.1-0.2,0.1-0.4,0.2-0.7
			C956.6,516.3,970,498.9,970,479z"/>
		<circle class="st29" cx="933" cy="451" r="34"/>
		<path class="st30" d="M941.4,472.2c1.6,3.9,1.7,8.2,0.2,12.1c-18.4,3.7-36.3-8.3-40-26.7c-3.7-18.4,8.3-36.3,26.7-40
			c3.4-0.7,6.8-0.8,10.3-0.5c0.6,0.8,1.2,1.7,1.7,2.5c2.7,4.7,3.7,10.9,0.7,15.3c-3.2,4.7-9.9,6.4-12.3,11.5
			c-2.1,4.6,0.3,10,3.4,13.9S939.4,467.6,941.4,472.2z"/>
		<path class="st31" d="M933,402c-27.1,0-49,21.9-49,49s21.9,49,49,49s49-21.9,49-49S960.1,402,933,402L933,402z M933,485
			c-18.8,0-34-15.2-34-34s15.2-34,34-34s34,15.2,34,34l0,0C967,469.8,951.8,485,933,485z"/>
		<path class="st32" d="M955,408.2c-1.6-0.1-3.3-0.2-5-0.2c-31.9,0-59.2,22.8-64.9,54.2c-5.6-26.5,11.3-52.5,37.7-58.1
			C933.7,401.7,945,403.2,955,408.2z"/>
		<path class="st5" d="M910,496c1.6,0.1,3.3,0.2,5,0.2c31.9,0,59.2-22.8,64.9-54.2c5.6,26.5-11.3,52.5-37.7,58.1
			C931.3,502.4,919.9,501,910,496z"/>
		<path class="st8" d="M933,488c-20.4,0-37-16.6-37-37s16.6-37,37-37s37,16.6,37,37l0,0C970,471.4,953.4,488,933,488z M933,420
			c-17.1,0-31,13.9-31,31s13.9,31,31,31s31-13.9,31-31S950.1,420,933,420L933,420z"/>
		<path class="st8" d="M933,503c-28.7,0-52-23.3-52-52s23.3-52,52-52s52,23.3,52,52C985,479.7,961.7,503,933,503z M933,405
			c-25.4,0-46,20.6-46,46s20.6,46,46,46s46-20.6,46-46l0,0C979,425.6,958.4,405,933,405z"/>
		<path class="st33" d="M143.6,318h56.1c10.5,0,18.9,8.5,18.9,19V482c0,10.5-8.5,19-18.9,19h-56.1c-10.5,0-18.9-8.5-18.9-19V337
			C124.7,326.5,133.2,318,143.6,318z"/>
		<path class="st5" d="M197.9,318l-55.5,182.5c-8.1-1.8-14-8.7-14.7-17L178.1,318H197.9z"/>
		<path class="st5" d="M212.9,321l-54.7,180H151l55.5-182.6C208.8,318.8,211,319.7,212.9,321z"/>
		<path class="st8" d="M199.7,504h-56.1c-12.2,0-22-9.8-22-22l0,0V337c0-12.2,9.8-22,22-22h56.1c12.2,0,22,9.8,22,22v145
			C221.7,494.2,211.9,504,199.7,504L199.7,504z M143.6,321c-8.8,0-16,7.2-16,16v145c0,8.8,7.2,16,16,16h56.1c8.8,0,16-7.2,16-16V337
			c0-8.8-7.2-16-16-16H143.6z"/>
		<path class="st34" d="M171.7,318.2l-27-0.2l2.9,8.5c0.7,2.1,2.6,3.5,4.8,3.5H191c2.2,0,4.1-1.4,4.8-3.5l2.9-8.5L171.7,318.2z"/>
		<polygon class="st35" points="171.7,322.2 197.7,322 198.7,319 171.7,319.2 144.7,319 145.7,322 		"/>
		<path class="st8" d="M191,332h-38.7c-3,0-5.7-1.9-6.7-4.8l-3.7-11.2l29.8,0.3l29.8-0.3l-3.7,11.2C196.7,330.1,194,332,191,332z
			 M147.4,320l2,5.9c0.4,1.3,1.6,2.1,2.9,2.1H191c1.3,0,2.5-0.8,2.9-2.1l2-5.9l-24.2,0.2L147.4,320z"/>
		<path class="st8" d="M155.7,486.5h32c0.8,0,1.5-0.7,1.5-1.5s-0.7-1.5-1.5-1.5h-32c-0.8,0-1.5,0.7-1.5,1.5S154.8,486.5,155.7,486.5
			z"/>
		<rect x="316.5" y="1.5" class="st8" width="6" height="91"/>
	</g>
</g>
</svg>
