<?xml version="1.0" encoding="utf-8"?>
<!-- Generator: Adobe Illustrator 22.0.1, SVG Export Plug-In . SVG Version: 6.00 Build 0)  -->
<svg version="1.1" xmlns="http://www.w3.org/2000/svg" xmlns:xlink="http://www.w3.org/1999/xlink" x="0px" y="0px"
	 viewBox="0 0 1200 1200" style="enable-background:new 0 0 1200 1200;" xml:space="preserve">
<style type="text/css">
	.st0{fill:#FDFDFD;}
</style>
<g id="Ñëîé_2">
	<path class="st0" d="M1200,0h-1.4L1150,48.6L1101.4,0h-2.8L1050,48.6L1001.4,0h-2.8L950,48.6L901.4,0h-2.8L850,48.6L801.4,0h-2.8
		L750,48.6L701.4,0h-2.8L650,48.6L601.4,0h-2.8L550,48.6L501.4,0h-2.8L450,48.6L401.4,0h-2.8L350,48.6L301.4,0h-2.8L250,48.6
		L201.4,0h-2.8L150,48.6L101.4,0h-2.8L50,48.6L1.4,0H0v1.4L48.6,50L0,98.6v102.8L48.6,250L0,298.6v102.8L48.6,450L0,498.6v102.8
		L48.6,650L0,698.6v102.8L48.6,850L0,898.6v102.8l48.6,48.6L0,1098.6V1200h1.4l-0.4-0.4v-97.2l47.6,47.6l50,50h2.8l50-50l47.6-47.6
		v97.2l-0.4,0.4h2.8l-0.4-0.4v-97.2l47.6,47.6l50,50h2.8l50-50l47.6-47.6v97.2l-0.4,0.4h2.8l-0.4-0.4v-97.2l47.6,47.6l50,50h2.8
		l50-50l47.6-47.6v97.2l-0.4,0.4h2.8l-0.4-0.4v-97.2l47.6,47.6l50,50h2.8l50-50l47.6-47.6v97.2l-0.4,0.4h2.8l-0.4-0.4v-97.2
		l47.6,47.6l50,50h2.8l50-50l47.6-47.6v97.2l-0.4,0.4h2.8l-0.4-0.4v-97.2l47.6,47.6l50,50h2.8l50-50l47.6-47.6v97.2l-0.4,0.4h1.4
		v-101.4l-48.6-48.6l48.6-48.6V898.6l-48.6-48.6l48.6-48.6V698.6l-48.6-48.6l48.6-48.6V498.6l-48.6-48.6l48.6-48.6V298.6l-48.6-48.6
		l48.6-48.6V98.6L1151.4,50L1200,1.4V0z M1050,848.6l-49-49v-97.2l47.6,47.6l50,50L1050,848.6z M1099,802.4v97.2l-49,49l-48.6-48.6
		l50-50L1099,802.4z M101.4,800l50-50l47.6-47.6v97.2l-49,49L101.4,800z M198.6,900L150,948.6l-49-49v-97.2l47.6,47.6L198.6,900z
		 M901.4,600l50-50l47.6-47.6v97.2l-49,49L901.4,600z M998.6,700L950,748.6l-49-49v-97.2l47.6,47.6L998.6,700z M999,399.6l-49,49
		L901.4,400l50-50l47.6-47.6V399.6z M1000,401.4l48.6,48.6l-48.6,48.6L951.4,450L1000,401.4z M948.6,450l50,50L950,548.6l-49-49
		v-97.2L948.6,450z M948.6,550L900,598.6L851.4,550l48.6-48.6L948.6,550z M851.4,650l47.6-47.6v97.2l-49,49L801.4,700L851.4,650z
		 M850,648.6l-49-49v-97.2l47.6,47.6l50,50L850,648.6z M899,499.6l-49,49L801.4,500l50-50l47.6-47.6V499.6z M850,448.6l-49-49v-97.2
		l47.6,47.6l50,50L850,448.6z M848.6,450L800,498.6L751.4,450l48.6-48.6L848.6,450z M701.4,600l50-50l47.6-47.6v97.2l-49,49
		L701.4,600z M798.6,700L750,748.6l-49-49v-97.2l47.6,47.6L798.6,700z M799,399.6l-49,49L701.4,400l50-50l47.6-47.6V399.6z
		 M748.6,450l50,50L750,548.6l-49-49v-97.2L748.6,450z M748.6,550L700,598.6L651.4,550l48.6-48.6L748.6,550z M651.4,650l47.6-47.6
		v97.2l-49,49L601.4,700L651.4,650z M650,648.6l-49-49v-97.2l47.6,47.6l50,50L650,648.6z M699,499.6l-49,49L601.4,500l50-50
		l47.6-47.6V499.6z M650,448.6l-49-49v-97.2l47.6,47.6l50,50L650,448.6z M648.6,450L600,498.6L551.4,450l48.6-48.6L648.6,450z
		 M501.4,600l50-50l47.6-47.6v97.2l-49,49L501.4,600z M598.6,700L550,748.6l-49-49v-97.2l47.6,47.6L598.6,700z M599,399.6l-49,49
		L501.4,400l50-50l47.6-47.6V399.6z M548.6,450l50,50L550,548.6l-49-49v-97.2L548.6,450z M548.6,550L500,598.6L451.4,550l48.6-48.6
		L548.6,550z M451.4,650l47.6-47.6v97.2l-49,49L401.4,700L451.4,650z M450,648.6l-49-49v-97.2l47.6,47.6l50,50L450,648.6z
		 M499,499.6l-49,49L401.4,500l50-50l47.6-47.6V499.6z M450,448.6l-49-49v-97.2l47.6,47.6l50,50L450,448.6z M448.6,450L400,498.6
		L351.4,450l48.6-48.6L448.6,450z M301.4,600l50-50l47.6-47.6v97.2l-49,49L301.4,600z M398.6,700L350,748.6l-49-49v-97.2l47.6,47.6
		L398.6,700z M399,399.6l-49,49L301.4,400l50-50l47.6-47.6V399.6z M348.6,450l50,50L350,548.6l-49-49v-97.2L348.6,450z M348.6,550
		L300,598.6L251.4,550l48.6-48.6L348.6,550z M251.4,650l47.6-47.6v97.2l-49,49L201.4,700L251.4,650z M250,648.6l-49-49v-97.2
		l47.6,47.6l50,50L250,648.6z M299,499.6l-49,49L201.4,500l50-50l47.6-47.6V499.6z M250,448.6l-49-49v-97.2l47.6,47.6l50,50
		L250,448.6z M248.6,450L200,498.6L151.4,450l48.6-48.6L248.6,450z M199,399.6l-49,49L101.4,400l50-50l47.6-47.6V399.6z M148.6,450
		l50,50L150,548.6l-49-49v-97.2L148.6,450z M151.4,550l47.6-47.6v97.2l-49,49L101.4,600L151.4,550z M148.6,650l50,50L150,748.6
		l-49-49v-97.2L148.6,650z M151.4,650l48.6-48.6l48.6,48.6L200,698.6L151.4,650z M201,702.4l47.6,47.6l50,50L250,848.6l-49-49V702.4
		z M251.4,850l47.6-47.6v97.2l-49,49L201.4,900L251.4,850z M251.4,750l48.6-48.6l48.6,48.6L300,798.6L251.4,750z M301,802.4
		l47.6,47.6l50,50L350,948.6l-49-49V802.4z M301.4,800l50-50l47.6-47.6v97.2l-49,49L301.4,800z M351.4,650l48.6-48.6l48.6,48.6
		L400,698.6L351.4,650z M401,702.4l47.6,47.6l50,50L450,848.6l-49-49V702.4z M451.4,850l47.6-47.6v97.2l-49,49L401.4,900L451.4,850z
		 M451.4,750l48.6-48.6l48.6,48.6L500,798.6L451.4,750z M501,802.4l47.6,47.6l50,50L550,948.6l-49-49V802.4z M501.4,800l50-50
		l47.6-47.6v97.2l-49,49L501.4,800z M551.4,650l48.6-48.6l48.6,48.6L600,698.6L551.4,650z M601,702.4l47.6,47.6l50,50L650,848.6
		l-49-49V702.4z M651.4,850l47.6-47.6v97.2l-49,49L601.4,900L651.4,850z M651.4,750l48.6-48.6l48.6,48.6L700,798.6L651.4,750z
		 M701,802.4l47.6,47.6l50,50L750,948.6l-49-49V802.4z M701.4,800l50-50l47.6-47.6v97.2l-49,49L701.4,800z M751.4,650l48.6-48.6
		l48.6,48.6L800,698.6L751.4,650z M801,702.4l47.6,47.6l50,50L850,848.6l-49-49V702.4z M851.4,850l47.6-47.6v97.2l-49,49L801.4,900
		L851.4,850z M851.4,750l48.6-48.6l48.6,48.6L900,798.6L851.4,750z M901,802.4l47.6,47.6l50,50L950,948.6l-49-49V802.4z M901.4,800
		l50-50l47.6-47.6v97.2l-49,49L901.4,800z M951.4,650l48.6-48.6l48.6,48.6l-48.6,48.6L951.4,650z M1001.4,700l50-50l47.6-47.6v97.2
		l-49,49L1001.4,700z M1050,648.6l-49-49v-97.2l47.6,47.6l50,50L1050,648.6z M1001.4,500l50-50l47.6-47.6v97.2l-49,49L1001.4,500z
		 M1050,448.6l-49-49v-97.2l47.6,47.6l50,50L1050,448.6z M1001.4,300l50-50l47.6-47.6v97.2l-49,49L1001.4,300z M1050,248.6l-49-49
		v-97.2l47.6,47.6l50,50L1050,248.6z M1048.6,250l-48.6,48.6L951.4,250l48.6-48.6L1048.6,250z M999,199.6l-49,49L901.4,200l50-50
		l47.6-47.6V199.6z M948.6,250l50,50L950,348.6l-49-49v-97.2L948.6,250z M948.6,350L900,398.6L851.4,350l48.6-48.6L948.6,350z
		 M899,299.6l-49,49L801.4,300l50-50l47.6-47.6V299.6z M850,248.6l-49-49v-97.2l47.6,47.6l50,50L850,248.6z M848.6,250L800,298.6
		L751.4,250l48.6-48.6L848.6,250z M799,199.6l-49,49L701.4,200l50-50l47.6-47.6V199.6z M748.6,250l50,50L750,348.6l-49-49v-97.2
		L748.6,250z M748.6,350L700,398.6L651.4,350l48.6-48.6L748.6,350z M699,299.6l-49,49L601.4,300l50-50l47.6-47.6V299.6z M650,248.6
		l-49-49v-97.2l47.6,47.6l50,50L650,248.6z M648.6,250L600,298.6L551.4,250l48.6-48.6L648.6,250z M599,199.6l-49,49L501.4,200l50-50
		l47.6-47.6V199.6z M548.6,250l50,50L550,348.6l-49-49v-97.2L548.6,250z M548.6,350L500,398.6L451.4,350l48.6-48.6L548.6,350z
		 M499,299.6l-49,49L401.4,300l50-50l47.6-47.6V299.6z M450,248.6l-49-49v-97.2l47.6,47.6l50,50L450,248.6z M448.6,250L400,298.6
		L351.4,250l48.6-48.6L448.6,250z M399,199.6l-49,49L301.4,200l50-50l47.6-47.6V199.6z M348.6,250l50,50L350,348.6l-49-49v-97.2
		L348.6,250z M348.6,350L300,398.6L251.4,350l48.6-48.6L348.6,350z M299,299.6l-49,49L201.4,300l50-50l47.6-47.6V299.6z M250,248.6
		l-49-49v-97.2l47.6,47.6l50,50L250,248.6z M248.6,250L200,298.6L151.4,250l48.6-48.6L248.6,250z M199,199.6l-49,49L101.4,200l50-50
		l47.6-47.6V199.6z M148.6,250l50,50L150,348.6l-49-49v-97.2L148.6,250z M148.6,350L100,398.6L51.4,350l48.6-48.6L148.6,350z
		 M148.6,550L100,598.6L51.4,550l48.6-48.6L148.6,550z M148.6,750L100,798.6L51.4,750l48.6-48.6L148.6,750z M148.6,950L100,998.6
		L51.4,950l48.6-48.6L148.6,950z M151.4,950l47.6-47.6v97.2l-49,49l-48.6-48.6L151.4,950z M151.4,850l48.6-48.6l48.6,48.6L200,898.6
		L151.4,850z M201,902.4l47.6,47.6l50,50l-48.6,48.6l-49-49V902.4z M251.4,950l48.6-48.6l48.6,48.6L300,998.6L251.4,950z M351.4,950
		l47.6-47.6v97.2l-49,49l-48.6-48.6L351.4,950z M351.4,850l48.6-48.6l48.6,48.6L400,898.6L351.4,850z M401,902.4l47.6,47.6l50,50
		l-48.6,48.6l-49-49V902.4z M451.4,950l48.6-48.6l48.6,48.6L500,998.6L451.4,950z M551.4,950l47.6-47.6v97.2l-49,49l-48.6-48.6
		L551.4,950z M551.4,850l48.6-48.6l48.6,48.6L600,898.6L551.4,850z M601,902.4l47.6,47.6l50,50l-48.6,48.6l-49-49V902.4z M651.4,950
		l48.6-48.6l48.6,48.6L700,998.6L651.4,950z M751.4,950l47.6-47.6v97.2l-49,49l-48.6-48.6L751.4,950z M751.4,850l48.6-48.6
		l48.6,48.6L800,898.6L751.4,850z M801,902.4l47.6,47.6l50,50l-48.6,48.6l-49-49V902.4z M851.4,950l48.6-48.6l48.6,48.6L900,998.6
		L851.4,950z M951.4,950l47.6-47.6v97.2l-49,49l-48.6-48.6L951.4,950z M951.4,850l48.6-48.6l48.6,48.6l-48.6,48.6L951.4,850z
		 M1001,902.4l47.6,47.6l50,50l-48.6,48.6l-49-49V902.4z M1051.4,950l48.6-48.6l48.6,48.6l-48.6,48.6L1051.4,950z M1051.4,750
		l48.6-48.6l48.6,48.6l-48.6,48.6L1051.4,750z M1051.4,550l48.6-48.6l48.6,48.6l-48.6,48.6L1051.4,550z M1051.4,350l48.6-48.6
		l48.6,48.6l-48.6,48.6L1051.4,350z M1051.4,150l48.6-48.6l48.6,48.6l-48.6,48.6L1051.4,150z M1051.4,50L1099,2.4v97.2l-49,49
		l-48.6-48.6L1051.4,50z M1000,1.4l48.6,48.6L1000,98.6L951.4,50L1000,1.4z M901,2.4L948.6,50l50,50L950,148.6l-49-49V2.4z
		 M948.6,150L900,198.6L851.4,150l48.6-48.6L948.6,150z M851.4,50L899,2.4v97.2l-49,49L801.4,100L851.4,50z M800,1.4L848.6,50
		L800,98.6L751.4,50L800,1.4z M701,2.4L748.6,50l50,50L750,148.6l-49-49V2.4z M748.6,150L700,198.6L651.4,150l48.6-48.6L748.6,150z
		 M651.4,50L699,2.4v97.2l-49,49L601.4,100L651.4,50z M600,1.4L648.6,50L600,98.6L551.4,50L600,1.4z M501,2.4L548.6,50l50,50
		L550,148.6l-49-49V2.4z M548.6,150L500,198.6L451.4,150l48.6-48.6L548.6,150z M451.4,50L499,2.4v97.2l-49,49L401.4,100L451.4,50z
		 M400,1.4L448.6,50L400,98.6L351.4,50L400,1.4z M301,2.4L348.6,50l50,50L350,148.6l-49-49V2.4z M348.6,150L300,198.6L251.4,150
		l48.6-48.6L348.6,150z M251.4,50L299,2.4v97.2l-49,49L201.4,100L251.4,50z M200,1.4L248.6,50L200,98.6L151.4,50L200,1.4z M101,2.4
		L148.6,50l50,50L150,148.6l-49-49V2.4z M148.6,150L100,198.6L51.4,150l48.6-48.6L148.6,150z M51.4,50L99,2.4v97.2l-49,49L1.4,100
		L51.4,50z M1,199.6v-97.2L48.6,150l50,50L50,248.6L1,199.6z M51.4,250L99,202.4v97.2l-49,49L1.4,300L51.4,250z M1,399.6v-97.2
		L48.6,350l50,50L50,448.6L1,399.6z M51.4,450L99,402.4v97.2l-49,49L1.4,500L51.4,450z M1,599.6v-97.2L48.6,550l50,50L50,648.6
		L1,599.6z M51.4,650L99,602.4v97.2l-49,49L1.4,700L51.4,650z M1,799.6v-97.2L48.6,750l50,50L50,848.6L1,799.6z M51.4,850L99,802.4
		v97.2l-49,49L1.4,900L51.4,850z M1,999.6v-97.2L48.6,950l50,50L50,1048.6L1,999.6z M1.4,1100l50-50l47.6-47.6v97.2l-49,49L1.4,1100
		z M100,1198.6L51.4,1150l48.6-48.6l48.6,48.6L100,1198.6z M150,1148.6l-49-49v-97.2l47.6,47.6l50,50L150,1148.6z M200,1098.6
		l-48.6-48.6l48.6-48.6l48.6,48.6L200,1098.6z M201.4,1100l50-50l47.6-47.6v97.2l-49,49L201.4,1100z M300,1198.6l-48.6-48.6
		l48.6-48.6l48.6,48.6L300,1198.6z M350,1148.6l-49-49v-97.2l47.6,47.6l50,50L350,1148.6z M400,1098.6l-48.6-48.6l48.6-48.6
		l48.6,48.6L400,1098.6z M401.4,1100l50-50l47.6-47.6v97.2l-49,49L401.4,1100z M500,1198.6l-48.6-48.6l48.6-48.6l48.6,48.6
		L500,1198.6z M550,1148.6l-49-49v-97.2l47.6,47.6l50,50L550,1148.6z M600,1098.6l-48.6-48.6l48.6-48.6l48.6,48.6L600,1098.6z
		 M601.4,1100l50-50l47.6-47.6v97.2l-49,49L601.4,1100z M700,1198.6l-48.6-48.6l48.6-48.6l48.6,48.6L700,1198.6z M750,1148.6l-49-49
		v-97.2l47.6,47.6l50,50L750,1148.6z M800,1098.6l-48.6-48.6l48.6-48.6l48.6,48.6L800,1098.6z M801.4,1100l50-50l47.6-47.6v97.2
		l-49,49L801.4,1100z M900,1198.6l-48.6-48.6l48.6-48.6l48.6,48.6L900,1198.6z M950,1148.6l-49-49v-97.2l47.6,47.6l50,50L950,1148.6
		z M1000,1098.6l-48.6-48.6l48.6-48.6l48.6,48.6L1000,1098.6z M1001.4,1100l50-50l47.6-47.6v97.2l-49,49L1001.4,1100z M1100,1198.6
		l-48.6-48.6l48.6-48.6l48.6,48.6L1100,1198.6z M1198.6,1100l-48.6,48.6l-49-49v-97.2l47.6,47.6L1198.6,1100z M1199,999.6l-49,49
		l-48.6-48.6l50-50l47.6-47.6V999.6z M1198.6,900l-48.6,48.6l-49-49v-97.2l47.6,47.6L1198.6,900z M1199,799.6l-49,49l-48.6-48.6
		l50-50l47.6-47.6V799.6z M1198.6,700l-48.6,48.6l-49-49v-97.2l47.6,47.6L1198.6,700z M1199,599.6l-49,49l-48.6-48.6l50-50
		l47.6-47.6V599.6z M1198.6,500l-48.6,48.6l-49-49v-97.2l47.6,47.6L1198.6,500z M1199,399.6l-49,49l-48.6-48.6l50-50l47.6-47.6
		V399.6z M1198.6,300l-48.6,48.6l-49-49v-97.2l47.6,47.6L1198.6,300z M1199,199.6l-49,49l-48.6-48.6l50-50l47.6-47.6V199.6z
		 M1198.6,100l-48.6,48.6l-49-49V2.4l47.6,47.6L1198.6,100z"/>
</g>
<g id="Ñëîé_3">
</g>
</svg>
