<?xml version="1.0" encoding="utf-8"?>
<!-- Generator: Adobe Illustrator 22.0.1, SVG Export Plug-In . SVG Version: 6.00 Build 0)  -->
<svg version="1.1" id="Layer_1" xmlns="http://www.w3.org/2000/svg" xmlns:xlink="http://www.w3.org/1999/xlink" x="0px" y="0px"
	 viewBox="0 0 2880 1800" style="enable-background:new 0 0 2880 1800;" xml:space="preserve">
<style type="text/css">
	.st0{fill:url(#SVGID_1_);stroke:#8E2DE2;stroke-miterlimit:10;}
</style>
<linearGradient id="SVGID_1_" gradientUnits="userSpaceOnUse" x1="783.9838" y1="912" x2="2118.6731" y2="912">
	<stop  offset="0" style="stop-color:#8E2DE2"/>
	<stop  offset="3.687131e-02" style="stop-color:#892AE2"/>
	<stop  offset="0.2742" style="stop-color:#6D17E1"/>
	<stop  offset="0.5137" style="stop-color:#5A0AE0"/>
	<stop  offset="0.7548" style="stop-color:#4E03E0"/>
	<stop  offset="1" style="stop-color:#4A00E0"/>
	<stop  offset="1" style="stop-color:#5106D8"/>
	<stop  offset="1" style="stop-color:#7F2BA7"/>
	<stop  offset="1" style="stop-color:#A64B7D"/>
	<stop  offset="1" style="stop-color:#C6655B"/>
	<stop  offset="1" style="stop-color:#DF7940"/>
	<stop  offset="1" style="stop-color:#F1882D"/>
	<stop  offset="1" style="stop-color:#FC9022"/>
	<stop  offset="1" style="stop-color:#FF931E"/>
</linearGradient>
<path class="st0" d="M1323.3,1043l28.8-69.7l40.9-97l28.8,68.2l-39.4,98.5l-28.8,69.7l-137.9,328.8h-104.5L784,381h162.1
	l228.8,745.4l28.8,87.9l-28.8,71.2h-9.1l-24.2-81.8L905.2,434h-47l60.6,203l221.2,710.5l12.1,40.9h27.3L1323.3,1043z M1052.1,381
	l183.3,606L1396,617.3l359,825.7H1696l-300-687.8l-166.7,398.4L994.6,381H1052.1z M1732.4,773.4L1850.5,381h268.2L1799,1429.4
	l-13.6-30.3L1446,612.8l-48.5-110.6l-156,360.6l-24.2-80.3l160.6-372.7h39.4l372.7,860.5l87.9-286.3l154.5-506L2046,434h-154.5
	l-127.3,415.1L1732.4,773.4z M1927.8,474.9h57.6l-203,662l-315.1-727.2h59.1l215.1,495.4l31.8,75.8L1927.8,474.9z"/>
</svg>
